<?xml version="1.0" encoding="utf-8" ?><svg xmlns="http://www.w3.org/2000/svg" xmlns:xlink="http://www.w3.org/1999/xlink" width="471" height="419" viewBox="0 0 471 419"><path fill="#FCFCFC" transform="scale(7.47619 7.48214)" d="M0 0L63 0L63 56L0 56L0 0Z"/><path fill="#35D499" transform="scale(7.47619 7.48214)" d="M22.4105 3.09794C27.4569 2.84959 42.2186 2.52006 46.5341 3.50803C48.8396 4.02357 50.9868 5.08752 52.7935 6.60965C56.037 9.35582 57.5778 13.2048 57.9163 17.372C58.2897 21.9687 58.4137 37.5218 57.4622 41.561C56.926 43.8762 55.8442 46.0297 54.307 47.842C51.4672 51.1805 47.8354 52.54 43.5622 52.8833C38.4223 53.1573 23.9502 53.5087 19.4308 52.4803C17.1823 51.98 15.0851 50.9523 13.312 49.4818C10.0705 46.7715 8.49735 42.9911 8.1269 38.8489C7.71016 34.1892 7.59335 18.5865 8.55168 14.4353C9.05649 12.1664 10.0974 10.0513 11.5872 8.26715C14.44 4.8572 18.0861 3.48247 22.4105 3.09794Z"/><path fill="#FCFCFC" transform="scale(7.47619 7.48214)" d="M41.6979 14.1943C41.7592 14.1904 41.8274 14.1892 41.8872 14.2063C42.4673 14.3727 42.7321 14.9771 42.9989 15.4638C45.0768 19.2542 46.1378 25.0188 44.9025 29.2238C43.8529 32.7969 41.2694 35.8756 38.0107 37.6547C33.968 39.8619 29.1152 39.9978 25.4217 36.9817C24.7529 36.4356 24.0116 35.2574 23.2533 35.0347L22.7228 35.627C21.9026 37.3942 22.2101 39.5631 20.5291 40.8034L19.757 40.5869C19.4991 40.0898 19.4245 39.6011 19.3984 39.0477C19.2708 36.3447 20.514 34.2103 22.2517 32.2872C21.9674 31.0047 21.7031 29.7038 21.8198 28.3846C22.5685 19.9224 30.6274 20.0454 36.6185 17.5303C38.6124 16.6933 40.0453 15.5724 41.6979 14.1943Z"/><path fill="#35D499" transform="scale(7.47619 7.48214)" d="M41.1909 17.9516C41.2243 17.9771 41.2572 18.0029 41.2885 18.031C42.3566 18.989 42.8452 22.34 42.919 23.7579C43.103 27.2936 42.3164 30.3757 39.903 33.0471C38.028 35.1226 35.4433 36.5784 32.6115 36.7138C29.5371 36.8608 27.5157 35.4453 25.3533 33.4738C27.9433 32.8944 30.4934 32.3034 32.7096 30.7855C33.3821 30.3072 34.0684 29.808 34.6956 29.2715C35.2977 28.7564 35.4022 28.3427 35.4629 27.5819L35.0498 27.213C32.8769 26.8929 29.7562 29.2077 27.742 30.0508C26.6108 30.5243 25.4271 30.8391 24.2403 31.1395C24.2977 29.9677 24.3252 28.7545 24.5994 27.61C26.0083 21.7293 31.8427 21.7795 36.5004 20.2684C38.217 19.7115 39.6545 18.8919 41.1909 17.9516Z"/></svg>